<?xml version="1.0" encoding="UTF-8"?>
<svg xmlns="http://www.w3.org/2000/svg" xmlns:xlink="http://www.w3.org/1999/xlink" width="275pt" height="200pt" viewBox="0 0 275 200" version="1.1">
<g id="surface1">
<path style=" stroke:none;fill-rule:nonzero;fill:rgb(84.313725%,84.705882%,83.921569%);fill-opacity:1;" d="M 7.683594 175.984375 L 258.597656 175.984375 L 258.597656 184.035156 L 7.683594 184.035156 Z M 7.683594 175.984375 "/>
<path style="fill-rule:nonzero;fill:rgb(95.294118%,71.372549%,45.490196%);fill-opacity:1;stroke-width:8.01722;stroke-linecap:round;stroke-linejoin:round;stroke:rgb(10.196078%,9.803922%,9.803922%);stroke-opacity:1;stroke-miterlimit:4;" d="M 15.263866 4.003246 L 953.679698 4.003246 L 953.679698 618.197773 L 15.263866 618.197773 Z M 15.263866 4.003246 " transform="matrix(0.281762,0,0,0.282974,0,0)"/>
<path style=" stroke:none;fill-rule:nonzero;fill:rgb(20%,20%,20%);fill-opacity:1;" d="M 11.457031 5.933594 L 261.558594 5.933594 L 261.558594 164.449219 L 11.457031 164.449219 Z M 11.457031 5.933594 "/>
<path style="fill:none;stroke-width:5.02175;stroke-linecap:round;stroke-linejoin:round;stroke:rgb(10.196078%,9.803922%,9.803922%);stroke-opacity:1;stroke-miterlimit:4;" d="M 42.658416 19.008515 L 933.95174 19.008515 L 933.95174 579.200638 L 42.658416 579.200638 Z M 42.658416 19.008515 " transform="matrix(0.281762,0,0,0.282974,0,0)"/>
<path style=" stroke:none;fill-rule:nonzero;fill:rgb(51.372549%,39.607843%,24.705882%);fill-opacity:1;" d="M 272.238281 177.59375 L 2.332031 177.59375 L 1.128906 170.011719 L 273.839844 170.011719 L 272.238281 177.59375 "/>
<path style="fill:none;stroke-width:8.01722;stroke-linecap:round;stroke-linejoin:round;stroke:rgb(10.196078%,9.803922%,9.803922%);stroke-opacity:1;stroke-miterlimit:4;" d="M 966.198564 627.598499 L 8.276592 627.598499 L 4.006592 600.804361 L 971.882656 600.804361 Z M 966.198564 627.598499 " transform="matrix(0.281762,0,0,0.282974,0,0)"/>
<path style=" stroke:none;fill-rule:nonzero;fill:rgb(86.666667%,74.901961%,62.745098%);fill-opacity:1;" d="M 44.941406 152.773438 L 74.183594 152.773438 L 74.183594 167.457031 L 44.941406 167.457031 Z M 44.941406 152.773438 "/>
<path style="fill:none;stroke-width:6.27718;stroke-linecap:round;stroke-linejoin:round;stroke:rgb(10.196078%,9.803922%,9.803922%);stroke-opacity:1;stroke-miterlimit:4;" d="M 157.546389 537.939598 L 261.329587 537.939598 L 261.329587 589.816141 L 157.546389 589.816141 Z M 157.546389 537.939598 " transform="matrix(0.281762,0,0,0.282974,0,0)"/>
<path style=" stroke:none;fill-rule:nonzero;fill:rgb(92.156863%,54.509804%,17.647059%);fill-opacity:1;" d="M 57.4375 152.097656 L 62.351562 152.097656 L 62.351562 165.359375 L 57.4375 165.359375 Z M 57.4375 152.097656 "/>
<path style="fill:none;stroke-width:6.27718;stroke-linecap:round;stroke-linejoin:round;stroke:rgb(10.196078%,9.803922%,9.803922%);stroke-opacity:1;stroke-miterlimit:4;" d="M 203.850942 584.363445 L 221.291399 584.363445 L 221.291399 537.497861 L 203.850942 537.497861 Z M 203.850942 584.363445 " transform="matrix(0.281762,0,0,0.282974,0,0)"/>
<path style=" stroke:none;fill-rule:nonzero;fill:rgb(100%,100%,99.607843%);fill-opacity:1;" d="M 204.726562 90.035156 C 204.726562 90.035156 197.769531 93.140625 194.726562 97.714844 C 191.679688 102.292969 186.320312 111.445312 186.320312 111.445312 L 178.199219 102.292969 L 177.1875 102.78125 L 175.589844 100.660156 C 175.589844 100.660156 173.855469 100.984375 170.953125 108.015625 C 168.054688 115.042969 167.476562 117.164062 167.476562 117.164062 L 169.503906 119.617188 L 168.921875 122.558594 C 168.921875 122.558594 177.765625 134.65625 182.40625 137.597656 C 187.042969 140.539062 188.785156 137.761719 188.785156 137.761719 C 188.785156 137.761719 187.332031 149.855469 188.058594 157.046875 C 188.785156 164.238281 189.21875 169.796875 189.21875 169.796875 C 189.21875 169.796875 226.179688 172.246094 236.472656 171.59375 C 246.761719 170.9375 254.882812 169.957031 254.882812 169.957031 L 253.722656 148.386719 C 253.722656 148.386719 262.128906 137.269531 263.867188 133.023438 C 265.605469 128.769531 265.464844 130.894531 264.59375 128.28125 C 263.722656 125.667969 259.808594 106.054688 251.257812 96.40625 C 242.703125 86.765625 236.90625 85.949219 236.90625 85.949219 C 236.90625 85.949219 229.804688 92.976562 214.875 92.976562 C 212.265625 93.957031 208.351562 93.46875 206.175781 91.996094 C 204.003906 90.523438 204.726562 90.035156 204.726562 90.035156 "/>
<path style=" stroke:none;fill-rule:nonzero;fill:rgb(14.509804%,11.372549%,7.45098%);fill-opacity:1;" d="M 191.851562 192.96875 C 191.851562 192.96875 191.65625 194.128906 192.3125 195.890625 C 192.964844 197.652344 195.683594 199.460938 202.25 197.875 C 208.820312 196.289062 213.480469 195.238281 215.921875 193.554688 C 218.363281 191.867188 219.710938 193.453125 220.421875 192.109375 C 221.136719 190.769531 221.015625 188.050781 221.015625 188.050781 L 191.851562 192.96875 "/>
<path style="fill:none;stroke-width:3.53884;stroke-linecap:round;stroke-linejoin:round;stroke:rgb(10.196078%,9.803922%,9.803922%);stroke-opacity:1;stroke-miterlimit:4;" d="M 840.105549 714.627859 C 840.105549 714.627859 839.569665 717.450862 841.370234 721.737645 C 843.160087 726.024428 850.61959 730.425272 868.636006 726.566217 C 886.66314 722.707162 899.44933 720.1503 906.147878 716.053618 C 912.846427 711.947431 916.544025 715.806487 918.494643 712.536745 C 920.455978 709.276509 920.12373 702.660986 920.12373 702.660986 Z M 840.105549 714.627859 " transform="matrix(0.364468,0,0,0.410965,-114.339985,-100.718454)"/>
<path style=" stroke:none;fill-rule:nonzero;fill:rgb(28.627451%,18.039216%,14.509804%);fill-opacity:1;" d="M 203.226562 182.773438 C 203.226562 182.773438 203.546875 184.136719 201.464844 185.054688 C 199.382812 185.976562 192.085938 185.996094 191.722656 190.640625 C 191.496094 193.539062 191.9375 194.515625 195.253906 194.992188 C 198.511719 195.457031 201.273438 194.945312 204.386719 194.242188 C 212.089844 192.503906 214.066406 191.566406 215.472656 190.050781 C 216.878906 188.53125 219.953125 189.773438 220.3125 189.003906 C 220.671875 188.238281 220.90625 184.75 220.90625 184.75 L 219.765625 181.425781 L 203.226562 182.773438 "/>
<path style="fill:none;stroke-width:3.53884;stroke-linecap:round;stroke-linejoin:round;stroke:rgb(10.196078%,9.803922%,9.803922%);stroke-opacity:1;stroke-miterlimit:4;" d="M 871.315426 689.819647 C 871.315426 689.819647 872.194275 693.136914 866.481753 695.370603 C 860.769231 697.613798 840.748609 697.661323 839.751865 708.962842 C 839.13024 716.015598 840.341337 718.391863 849.440646 719.551481 C 858.379189 720.682583 865.956587 719.43742 874.498576 717.726509 C 895.633836 713.496756 901.056981 711.215542 904.915345 707.527578 C 908.773709 703.830108 917.208521 706.852718 918.194548 704.980221 C 919.180574 703.117229 919.823635 694.629208 919.823635 694.629208 L 916.694073 686.540401 Z M 871.315426 689.819647 " transform="matrix(0.364468,0,0,0.410965,-114.339985,-100.718454)"/>
<path style=" stroke:none;fill-rule:nonzero;fill:rgb(14.509804%,11.372549%,7.45098%);fill-opacity:1;" d="M 221.316406 190.484375 C 221.316406 190.484375 221.253906 193.78125 222.09375 194.769531 C 222.933594 195.761719 225.339844 195.820312 226.371094 196.035156 C 227.398438 196.257812 228.023438 199.570312 237.996094 199.8125 C 247.964844 200.054688 250.21875 199.332031 250.75 198.375 C 251.285156 197.417969 251.195312 193.148438 251.195312 193.148438 L 225.121094 189.414062 L 221.316406 190.484375 "/>
<path style="fill:none;stroke-width:3.53884;stroke-linecap:round;stroke-linejoin:round;stroke:rgb(10.196078%,9.803922%,9.803922%);stroke-opacity:1;stroke-miterlimit:4;" d="M 920.948991 708.582639 C 920.948991 708.582639 920.777508 716.604912 923.081809 719.009692 C 925.38611 721.423978 931.988199 721.566554 934.817666 722.089332 C 937.636415 722.631121 939.351244 730.691414 966.713475 731.280727 C 994.064988 731.870041 1000.249088 730.111605 1001.706692 727.782865 C 1003.175014 725.454124 1002.928507 715.065092 1002.928507 715.065092 L 931.388009 705.978252 Z M 920.948991 708.582639 " transform="matrix(0.364468,0,0,0.410965,-114.339985,-100.718454)"/>
<path style=" stroke:none;fill-rule:nonzero;fill:rgb(28.627451%,18.039216%,14.509804%);fill-opacity:1;" d="M 220.550781 185.421875 C 220.550781 185.421875 220.804688 190.082031 221.304688 191.066406 C 221.800781 192.046875 226.453125 191.578125 227.121094 192.757812 C 227.785156 193.9375 228.261719 195.890625 232.039062 196.367188 C 235.816406 196.847656 250.75 198.570312 250.988281 194.890625 C 251.230469 191.210938 251.78125 189.476562 246.132812 187.984375 C 240.484375 186.488281 238.355469 185.367188 238.355469 185.367188 L 220.550781 185.421875 "/>
<path style="fill:none;stroke-width:3.53884;stroke-linecap:round;stroke-linejoin:round;stroke:rgb(10.196078%,9.803922%,9.803922%);stroke-opacity:1;stroke-miterlimit:4;" d="M 918.848326 696.264079 C 918.848326 696.264079 919.544975 707.603618 920.916838 709.998894 C 922.277983 712.384664 935.042737 711.244057 936.87546 714.114585 C 938.697465 716.985114 940.005022 721.737645 950.369016 722.897263 C 960.73301 724.07589 1001.706692 728.258118 1002.36047 719.304349 C 1003.024966 710.350581 1004.536159 706.130333 989.038397 702.4994 C 973.540635 698.858961 967.699501 696.131008 967.699501 696.131008 Z M 918.848326 696.264079 " transform="matrix(0.364468,0,0,0.410965,-114.339985,-100.718454)"/>
<path style=" stroke:none;fill-rule:nonzero;fill:rgb(84.705882%,13.72549%,16.470588%);fill-opacity:1;" d="M 135.269531 46.742188 C 135.269531 46.742188 132.59375 44.113281 133.652344 42.78125 C 134.710938 41.449219 136.480469 45.738281 136.480469 45.738281 L 135.269531 46.742188 "/>
<path style="fill:none;stroke-width:2.83131;stroke-linecap:round;stroke-linejoin:round;stroke:rgb(10.196078%,9.803922%,9.803922%);stroke-opacity:1;stroke-miterlimit:4;" d="M 684.859988 358.815369 C 684.859988 358.815369 677.518379 352.418462 680.422869 349.177236 C 683.32736 345.93601 688.182468 356.372568 688.182468 356.372568 Z M 684.859988 358.815369 " transform="matrix(0.364468,0,0,0.410965,-114.339985,-100.718454)"/>
<path style=" stroke:none;fill-rule:nonzero;fill:rgb(58.039216%,58.431373%,58.039216%);fill-opacity:1;" d="M 144.042969 57.914062 C 144.042969 57.914062 137.101562 46.785156 136.480469 45.738281 C 136.199219 45.265625 135.144531 46.40625 135.269531 46.742188 C 135.617188 47.679688 143.09375 59.546875 143.09375 59.546875 L 144.042969 57.914062 "/>
<path style="fill:none;stroke-width:2.83131;stroke-linecap:round;stroke-linejoin:round;stroke:rgb(10.196078%,9.803922%,9.803922%);stroke-opacity:1;stroke-miterlimit:4;" d="M 708.931892 385.999846 C 708.931892 385.999846 689.886579 358.919924 688.182468 356.372568 C 687.410795 355.222455 684.517022 357.997933 684.859988 358.815369 C 685.813861 361.096584 706.327496 389.972962 706.327496 389.972962 Z M 708.931892 385.999846 " transform="matrix(0.364468,0,0,0.410965,-114.339985,-100.718454)"/>
<path style=" stroke:none;fill-rule:nonzero;fill:rgb(58.039216%,58.431373%,58.039216%);fill-opacity:1;" d="M 153.542969 72.847656 C 153.542969 72.847656 144.511719 58.371094 143.703125 57.003906 C 143.339844 56.390625 141.964844 57.875 142.128906 58.308594 C 142.582031 59.53125 152.308594 74.972656 152.308594 74.972656 L 153.542969 72.847656 "/>
<path style="fill:none;stroke-width:2.83131;stroke-linecap:round;stroke-linejoin:round;stroke:rgb(10.196078%,9.803922%,9.803922%);stroke-opacity:1;stroke-miterlimit:4;" d="M 734.997284 422.337698 C 734.997284 422.337698 710.218013 387.111938 707.999454 383.785166 C 707.00271 382.292872 703.230087 385.904795 703.68023 386.959857 C 704.92348 389.934942 731.610498 427.508452 731.610498 427.508452 Z M 734.997284 422.337698 " transform="matrix(0.364468,0,0,0.410965,-114.339985,-100.718454)"/>
<path style=" stroke:none;fill-rule:nonzero;fill:rgb(97.647059%,84.705882%,70.980392%);fill-opacity:1;" d="M 169.136719 112.308594 C 169.136719 112.308594 164.300781 113.355469 163.371094 107.902344 C 162.441406 102.445312 164.15625 90.398438 165.632812 88.558594 C 167.925781 85.703125 168.257812 86.296875 169.046875 90 C 169.738281 93.246094 174.875 93.484375 175.265625 97.714844 C 175.550781 100.8125 175.550781 100.824219 173.421875 104.070312 C 171.292969 107.316406 169.136719 112.308594 169.136719 112.308594 "/>
<path style="fill:none;stroke-width:3.53884;stroke-linecap:round;stroke-linejoin:round;stroke:rgb(10.196078%,9.803922%,9.803922%);stroke-opacity:1;stroke-miterlimit:4;" d="M 777.782253 518.357834 C 777.782253 518.357834 764.513768 520.905191 761.962961 507.636124 C 759.412154 494.357552 764.117214 465.043941 768.168496 460.567057 C 774.459773 453.618857 775.370776 455.063626 777.535746 464.074425 C 779.432775 471.973132 793.526521 472.55294 794.598289 482.846922 C 795.369962 490.384437 795.369962 490.412952 789.539545 498.311658 C 783.698411 506.210365 777.782253 518.357834 777.782253 518.357834 Z M 777.782253 518.357834 " transform="matrix(0.364468,0,0,0.410965,-114.339985,-100.718454)"/>
<path style=" stroke:none;fill-rule:nonzero;fill:rgb(100%,100%,99.607843%);fill-opacity:1;" d="M 231.703125 87.835938 C 231.703125 87.835938 216.492188 100.65625 209.582031 111.351562 C 202.667969 122.042969 200.316406 128 200.316406 128 C 200.316406 128 197.015625 120.746094 200.386719 106.472656 C 203.753906 92.199219 207.046875 90.921875 207.046875 90.921875 "/>
<path style="fill:none;stroke-width:3.53884;stroke-linecap:round;stroke-linejoin:round;stroke:rgb(10.196078%,9.803922%,9.803922%);stroke-opacity:1;stroke-miterlimit:4;" d="M 949.447296 458.808621 C 949.447296 458.808621 907.712659 490.004234 888.74237 516.029094 C 869.782798 542.044448 863.330756 556.539668 863.330756 556.539668 C 863.330756 556.539668 854.274318 538.888768 863.512956 504.157271 C 872.762312 469.425775 881.797315 466.31762 881.797315 466.31762 M 876.674265 462.905302 C 876.674265 462.905302 855.656899 474.720094 848.143807 494.861321 C 857.532492 496.942929 857.961199 498.843942 857.961199 498.843942 C 857.961199 498.843942 847.061321 500.973076 845.539411 506.124819 C 844.017501 511.286068 841.402388 522.559071 850.48026 539.744223 C 859.547416 556.929376 863.330756 556.539668 863.330756 556.539668 C 863.330756 556.539668 904.604533 524.859296 920.852532 515.772457 C 936.221682 507.170376 922.074347 502.588936 917.883735 500.13663 C 913.682406 497.684324 939.587032 500.602378 939.587032 500.602378 L 956.638858 453.770938 M 898.259667 469.036067 L 911.453129 491.971782 Z M 870.040022 486.363795 L 898.259667 469.036067 " transform="matrix(0.364468,0,0,0.410965,-114.339985,-100.718454)"/>
<path style=" stroke:none;fill-rule:nonzero;fill:rgb(26.666667%,30.980392%,49.411765%);fill-opacity:1;" d="M 206.585938 96.921875 L 207.191406 101.207031 L 210.101562 102.050781 L 216.199219 98.125 L 213.035156 92.621094 L 206.585938 96.921875 "/>
<path style="fill:none;stroke-width:3.53884;stroke-linecap:round;stroke-linejoin:round;stroke:rgb(10.196078%,9.803922%,9.803922%);stroke-opacity:1;stroke-miterlimit:4;" d="M 880.532629 480.917395 L 882.193869 491.344448 L 890.178538 493.397541 L 906.898116 483.844954 L 898.227514 470.452322 Z M 880.532629 480.917395 " transform="matrix(0.364468,0,0,0.410965,-114.339985,-100.718454)"/>
<path style=" stroke:none;fill-rule:nonzero;fill:rgb(26.666667%,30.980392%,49.411765%);fill-opacity:1;" d="M 207.097656 115.363281 L 210.101562 102.050781 L 207.191406 101.207031 C 207.191406 101.207031 199.632812 109.75 199.207031 114.007812 C 198.78125 118.265625 200.316406 128 200.316406 128 L 207.097656 115.363281 "/>
<path style="fill:none;stroke-width:3.53884;stroke-linecap:round;stroke-linejoin:round;stroke:rgb(10.196078%,9.803922%,9.803922%);stroke-opacity:1;stroke-miterlimit:4;" d="M 881.936644 525.790792 L 890.178538 493.397541 L 882.193869 491.344448 C 882.193869 491.344448 861.455162 512.132018 860.286936 522.492536 C 859.118709 532.853054 863.330756 556.539668 863.330756 556.539668 Z M 881.936644 525.790792 " transform="matrix(0.364468,0,0,0.410965,-114.339985,-100.718454)"/>
<path style=" stroke:none;fill-rule:nonzero;fill:rgb(100%,100%,99.607843%);fill-opacity:1;" d="M 228.652344 139.550781 C 228.652344 139.550781 234.410156 144.347656 240.363281 147.785156 C 246.320312 151.230469 250.609375 151.722656 250.609375 151.722656 L 248.792969 156.917969 C 248.792969 156.917969 245.855469 157.425781 238.210938 152.390625 C 230.566406 147.359375 226.835938 144.550781 226.835938 144.550781 L 228.652344 139.550781 "/>
<path style="fill:none;stroke-width:3.53884;stroke-linecap:round;stroke-linejoin:round;stroke:rgb(10.196078%,9.803922%,9.803922%);stroke-opacity:1;stroke-miterlimit:4;" d="M 941.07679 584.646136 C 941.07679 584.646136 956.874646 596.318352 973.208387 604.682807 C 989.552846 613.066272 1001.320856 614.263909 1001.320856 614.263909 L 996.337136 626.905642 C 996.337136 626.905642 988.277442 628.1413 967.302947 615.889275 C 946.328452 603.646755 936.09307 596.812616 936.09307 596.812616 Z M 959.511195 451.945966 C 959.511195 451.945966 989.059832 460.624088 1005.297114 481.782355 C 1030.933799 515.202153 1039.454353 553.260422 1040.697603 561.301704 C 1041.940854 569.352492 1008.051557 608.741468 1008.051557 608.741468 C 1008.051557 608.741468 975.094698 604.730332 949.629496 581.994224 C 964.65568 563.440343 969.350023 553.868746 969.350023 553.868746 C 969.350023 553.868746 961.740472 545.437756 972.136619 545.200129 C 982.522049 544.952997 977.806271 544.373189 977.806271 544.373189 C 977.806271 544.373189 948.075433 544.677351 959.661243 510.478138 M 838.53005 524.859296 C 838.53005 524.859296 825.165106 575.540287 832.592456 657.825608 C 886.673858 667.017003 1013.571161 659.365428 1013.571161 659.365428 L 1010.441599 607.382244 M 953.787955 586.338037 L 949.908156 590.976508 M 995.586898 606.830951 L 990.292365 611.431401 M 929.244473 607.990568 C 929.244473 607.990568 921.677793 630.479545 940.755259 643.634551 M 867.97151 582.127295 C 867.896487 585.520602 865.088455 588.201029 861.712387 588.134494 C 858.314883 588.058453 855.635463 585.25446 855.710487 581.870658 C 855.774793 578.477351 858.582825 575.796924 861.969611 575.863459 C 865.356397 575.939499 868.046534 578.743493 867.97151 582.127295 Z M 867.231991 616.564134 C 867.156967 619.957441 864.359653 622.637869 860.962149 622.571334 C 857.586081 622.495293 854.895944 619.6913 854.96025 616.307498 C 855.045991 612.914191 857.843305 610.233763 861.230091 610.300299 C 864.616877 610.376339 867.307014 613.180332 867.231991 616.564134 Z M 876.674265 462.905302 C 876.674265 462.905302 856.460725 470.252715 837.490435 496.515202 C 828.091032 509.518126 824.061185 516.99861 824.061185 516.99861 L 802.411476 492.45654 C 802.411476 492.45654 780.515261 523.13888 776.785509 542.880894 C 795.187762 564.989668 815.015465 586.651704 830.727581 579.912615 M 824.061185 516.99861 C 824.061185 516.99861 829.334282 513.329656 829.62366 521.827182 " transform="matrix(0.364468,0,0,0.410965,-114.339985,-100.718454)"/>
<path style=" stroke:none;fill-rule:nonzero;fill:rgb(100%,100%,99.607843%);fill-opacity:1;" d="M 177.214844 102.585938 L 175.550781 100.8125 C 175.550781 100.8125 170.96875 106.535156 168.605469 113.070312 C 167.140625 117.121094 167.65625 117.703125 167.65625 117.703125 L 169.171875 119.484375 C 169.171875 119.484375 171.515625 113.722656 173.664062 109.507812 C 175.808594 105.292969 177.214844 102.585938 177.214844 102.585938 "/>
<path style="fill:none;stroke-width:3.53884;stroke-linecap:round;stroke-linejoin:round;stroke:rgb(10.196078%,9.803922%,9.803922%);stroke-opacity:1;stroke-miterlimit:4;" d="M 799.94641 494.699735 L 795.369962 490.384437 C 795.369962 490.384437 782.808844 504.309352 776.324649 520.211321 C 772.30552 530.06807 773.720253 531.484325 773.720253 531.484325 L 777.878712 535.818633 C 777.878712 535.818633 784.309319 521.798666 790.204041 511.542705 C 796.077329 501.286743 799.94641 494.699735 799.94641 494.699735 Z M 799.94641 494.699735 " transform="matrix(0.364468,0,0,0.410965,-114.339985,-100.718454)"/>
<path style=" stroke:none;fill-rule:nonzero;fill:rgb(58.039216%,58.431373%,58.039216%);fill-opacity:1;" d="M 168.074219 95.796875 C 168.074219 95.796875 155.058594 74.917969 153.890625 72.949219 C 153.367188 72.066406 151.382812 74.207031 151.617188 74.835938 C 152.273438 76.597656 166.296875 98.855469 166.296875 98.855469 L 168.074219 95.796875 "/>
<path style="fill:none;stroke-width:2.83131;stroke-linecap:round;stroke-linejoin:round;stroke:rgb(10.196078%,9.803922%,9.803922%);stroke-opacity:1;stroke-miterlimit:4;" d="M 774.867045 478.179937 C 774.867045 478.179937 739.155743 427.375381 735.951157 422.594335 C 734.514988 420.436685 729.070408 425.645459 729.713469 427.175774 C 731.514039 431.462557 769.990501 485.622401 769.990501 485.622401 Z M 774.867045 478.179937 " transform="matrix(0.364468,0,0,0.410965,-114.339985,-100.718454)"/>
<path style=" stroke:none;fill-rule:nonzero;fill:rgb(97.647059%,84.705882%,70.980392%);fill-opacity:1;" d="M 162.5625 105.261719 C 162.5625 105.261719 162.152344 108.742188 164.917969 108.035156 C 167.683594 107.328125 169.804688 104.46875 167.941406 102.675781 C 166.085938 100.886719 164.339844 102.203125 164.339844 102.203125 L 162.5625 105.261719 "/>
<path style="fill:none;stroke-width:3.53884;stroke-linecap:round;stroke-linejoin:round;stroke:rgb(10.196078%,9.803922%,9.803922%);stroke-opacity:1;stroke-miterlimit:4;" d="M 759.744402 501.210702 C 759.744402 501.210702 758.619045 509.679712 766.207161 507.959296 C 773.795277 506.23888 779.614976 499.281175 774.502644 494.918351 C 769.411747 490.565033 764.620945 493.768239 764.620945 493.768239 Z M 759.744402 501.210702 " transform="matrix(0.364468,0,0,0.410965,-114.339985,-100.718454)"/>
<path style=" stroke:none;fill-rule:nonzero;fill:rgb(97.647059%,84.705882%,70.980392%);fill-opacity:1;" d="M 159.730469 100.34375 C 159.730469 100.34375 160.144531 105.785156 165.523438 103.394531 C 170.898438 101.003906 168.023438 98.605469 165.433594 99.125 C 162.839844 99.644531 159.730469 100.34375 159.730469 100.34375 "/>
<path style="fill:none;stroke-width:3.53884;stroke-linecap:round;stroke-linejoin:round;stroke:rgb(10.196078%,9.803922%,9.803922%);stroke-opacity:1;stroke-miterlimit:4;" d="M 751.974085 489.243829 C 751.974085 489.243829 753.110159 502.48438 767.868401 496.667283 C 782.615926 490.850185 774.727715 485.014077 767.621895 486.27825 C 760.505357 487.542423 751.974085 489.243829 751.974085 489.243829 Z M 751.974085 489.243829 " transform="matrix(0.364468,0,0,0.410965,-114.339985,-100.718454)"/>
<path style=" stroke:none;fill-rule:nonzero;fill:rgb(97.647059%,84.705882%,70.980392%);fill-opacity:1;" d="M 156.3125 90.175781 C 156.3125 90.175781 160.109375 89.6875 161.28125 91.265625 C 162.453125 92.847656 162.949219 94.023438 159.328125 94.515625 C 155.707031 95.007812 154.507812 94.589844 154.375 92.652344 C 154.238281 90.707031 156.3125 90.175781 156.3125 90.175781 "/>
<path style="fill:none;stroke-width:3.53884;stroke-linecap:round;stroke-linejoin:round;stroke:rgb(10.196078%,9.803922%,9.803922%);stroke-opacity:1;stroke-miterlimit:4;" d="M 742.596117 464.502153 C 742.596117 464.502153 753.0137 463.31402 756.229003 467.154065 C 759.444307 471.003615 760.805452 473.864639 750.870164 475.062277 C 740.934877 476.259914 737.64455 475.242873 737.280149 470.528362 C 736.90503 465.794841 742.596117 464.502153 742.596117 464.502153 Z M 742.596117 464.502153 " transform="matrix(0.364468,0,0,0.410965,-114.339985,-100.718454)"/>
<path style=" stroke:none;fill-rule:nonzero;fill:rgb(97.647059%,84.705882%,70.980392%);fill-opacity:1;" d="M 161.210938 94.949219 C 161.210938 94.949219 166.726562 94.304688 165.980469 97.394531 C 165.695312 98.578125 163.546875 100.472656 160.085938 99.769531 C 156.832031 99.109375 156.542969 96.191406 158.457031 95.074219 C 160.371094 93.960938 161.210938 94.949219 161.210938 94.949219 "/>
<path style="fill:none;stroke-width:3.53884;stroke-linecap:round;stroke-linejoin:round;stroke:rgb(10.196078%,9.803922%,9.803922%);stroke-opacity:1;stroke-miterlimit:4;" d="M 756.036085 476.117339 C 756.036085 476.117339 771.169446 474.549003 769.122369 482.067507 C 768.339979 484.947541 762.445256 489.557496 752.949394 487.846585 C 744.021568 486.24023 743.22846 479.139948 748.480122 476.421501 C 753.731784 473.712558 756.036085 476.117339 756.036085 476.117339 Z M 793.44078 492.732187 C 793.44078 492.732187 797.417038 483.379206 791.875999 477.590623 C 786.33496 471.811545 783.955635 472.705021 778.896891 466.460196 C 773.838148 460.21537 778.682538 454.664414 772.970016 456.898103 C 767.257494 459.131793 766.678739 464.312052 769.336723 471.916101 L 774.449055 475.803671 C 774.449055 475.803671 769.079499 484.187136 779.282728 492.428025 " transform="matrix(0.364468,0,0,0.410965,-114.339985,-100.718454)"/>
<path style=" stroke:none;fill-rule:nonzero;fill:rgb(46.666667%,46.666667%,46.27451%);fill-opacity:1;" d="M 217.71875 171.484375 C 217.71875 171.484375 218.816406 181.695312 219.289062 184.035156 C 219.757812 186.371094 219.757812 186.371094 219.757812 186.371094 C 219.757812 186.371094 234.195312 187.015625 238.339844 186.242188 C 242.484375 185.46875 242.484375 185.46875 242.484375 185.46875 L 243.53125 171.140625 C 243.53125 171.140625 239.574219 171.238281 231.140625 171.421875 C 225.097656 171.554688 222.195312 171.402344 222.195312 171.402344 L 217.71875 171.484375 "/>
<path style="fill:none;stroke-width:3.53884;stroke-linecap:round;stroke-linejoin:round;stroke:rgb(10.196078%,9.803922%,9.803922%);stroke-opacity:1;stroke-miterlimit:4;" d="M 911.07801 662.350018 C 911.07801 662.350018 914.089677 687.19625 915.386516 692.889782 C 916.672638 698.573809 916.672638 698.573809 916.672638 698.573809 C 916.672638 698.573809 956.285174 700.142144 967.65663 698.260142 C 979.028086 696.37814 979.028086 696.37814 979.028086 696.37814 L 981.900424 661.513572 C 981.900424 661.513572 971.032699 661.751199 947.90395 662.197937 C 931.323703 662.521109 923.360468 662.150412 923.360468 662.150412 Z M 911.07801 662.350018 " transform="matrix(0.364468,0,0,0.410965,-114.339985,-100.718454)"/>
<path style="fill-rule:nonzero;fill:rgb(46.666667%,46.666667%,46.27451%);fill-opacity:1;stroke-width:3.53884;stroke-linecap:round;stroke-linejoin:round;stroke:rgb(10.196078%,9.803922%,9.803922%);stroke-opacity:1;stroke-miterlimit:4;" d="M 915.729482 687.462392 C 915.729482 687.462392 930.316241 689.667566 952.533987 688.260817 C 974.741015 686.854068 979.478229 686.473865 979.478229 686.473865 " transform="matrix(0.364468,0,0,0.410965,-114.339985,-100.718454)"/>
<path style=" stroke:none;fill-rule:nonzero;fill:rgb(46.666667%,46.666667%,46.27451%);fill-opacity:1;" d="M 197.261719 170.792969 C 197.261719 170.792969 199.59375 183.847656 200.097656 184.4375 C 200.605469 185.035156 214.863281 185.964844 219.359375 184.90625 C 218.308594 176.734375 217.71875 171.484375 217.71875 171.484375 L 197.261719 170.792969 "/>
<path style="fill:none;stroke-width:3.53884;stroke-linecap:round;stroke-linejoin:round;stroke:rgb(10.196078%,9.803922%,9.803922%);stroke-opacity:1;stroke-miterlimit:4;" d="M 854.949532 660.667622 C 854.949532 660.667622 861.347986 692.433539 862.730566 693.868803 C 864.123864 695.323078 903.243388 697.585283 915.579434 695.009411 C 912.696379 675.124821 911.07801 662.350018 911.07801 662.350018 Z M 854.949532 660.667622 " transform="matrix(0.364468,0,0,0.410965,-114.339985,-100.718454)"/>
<path style="fill-rule:nonzero;fill:rgb(46.666667%,46.666667%,46.27451%);fill-opacity:1;stroke-width:3.53884;stroke-linecap:round;stroke-linejoin:round;stroke:rgb(10.196078%,9.803922%,9.803922%);stroke-opacity:1;stroke-miterlimit:4;" d="M 861.540904 683.460761 C 861.540904 683.460761 869.547009 684.582358 892.654322 685.551874 C 912.492743 686.38832 914.389772 684.13562 914.389772 684.13562 " transform="matrix(0.364468,0,0,0.410965,-114.339985,-100.718454)"/>
<path style=" stroke:none;fill-rule:nonzero;fill:rgb(89.019608%,89.411765%,88.627451%);fill-opacity:1;" d="M 193.921875 59.910156 C 193.921875 59.910156 188.96875 62.40625 189.195312 57.464844 C 189.417969 52.523438 191.210938 53.152344 191.210938 53.152344 C 191.210938 53.152344 185.292969 52.28125 187.710938 47.246094 C 190.128906 42.210938 193.148438 46.214844 193.148438 46.214844 C 193.148438 46.214844 189.929688 39.152344 195.492188 38.414062 C 201.054688 37.679688 200.03125 43.910156 200.03125 43.910156 L 193.921875 59.910156 "/>
<path style="fill:none;stroke-width:3.53884;stroke-linecap:round;stroke-linejoin:round;stroke:rgb(10.196078%,9.803922%,9.803922%);stroke-opacity:1;stroke-miterlimit:4;" d="M 845.785918 390.856933 C 845.785918 390.856933 832.195902 396.930667 832.817528 384.906764 C 833.428435 372.88286 838.347849 374.413175 838.347849 374.413175 C 838.347849 374.413175 822.110568 372.293547 828.74481 360.041522 C 835.379053 347.789497 843.663817 357.532185 843.663817 357.532185 C 843.663817 357.532185 834.832451 340.347033 850.094424 338.550576 C 865.356397 336.763625 862.548366 351.924199 862.548366 351.924199 Z M 845.785918 390.856933 " transform="matrix(0.364468,0,0,0.410965,-114.339985,-100.718454)"/>
<path style=" stroke:none;fill-rule:nonzero;fill:rgb(97.647059%,84.705882%,70.980392%);fill-opacity:1;" d="M 246.089844 64.300781 C 245.765625 81.128906 232.84375 93.441406 217.285156 93.0625 C 201.722656 92.683594 192.144531 82.660156 192.257812 65.832031 C 192.398438 45.03125 203.511719 32.792969 219.070312 33.167969 C 234.636719 33.546875 246.410156 47.480469 246.089844 64.300781 "/>
<path style="fill:none;stroke-width:3.53884;stroke-linecap:round;stroke-linejoin:round;stroke:rgb(10.196078%,9.803922%,9.803922%);stroke-opacity:1;stroke-miterlimit:4;" d="M 988.920503 401.540622 C 988.030935 442.488429 952.576858 472.448385 909.888348 471.526394 C 867.18912 470.604403 840.909374 446.214414 841.220187 405.266607 C 841.606023 354.652151 872.097816 324.872792 914.786326 325.785278 C 957.496272 326.707269 989.799352 360.611825 988.920503 401.540622 Z M 988.920503 401.540622 " transform="matrix(0.364468,0,0,0.410965,-114.339985,-100.718454)"/>
<path style=" stroke:none;fill-rule:nonzero;fill:rgb(10.196078%,9.803922%,9.803922%);fill-opacity:1;" d="M 206.839844 56.414062 C 206.824219 57.390625 206.109375 58.164062 205.242188 58.144531 C 204.378906 58.121094 203.691406 57.3125 203.710938 56.339844 C 203.730469 55.363281 204.445312 54.589844 205.3125 54.613281 C 206.175781 54.632812 206.859375 55.441406 206.839844 56.414062 "/>
<path style="fill:none;stroke-width:0.70753;stroke-linecap:butt;stroke-linejoin:miter;stroke:rgb(10.196078%,9.803922%,9.803922%);stroke-opacity:1;stroke-miterlimit:4;" d="M 881.229278 382.349902 C 881.186407 384.726168 879.225072 386.60817 876.845747 386.560645 C 874.477141 386.503614 872.590829 384.536066 872.644418 382.169306 C 872.698006 379.79304 874.659341 377.911038 877.038666 377.968069 C 879.407272 378.015594 881.282866 379.983142 881.229278 382.349902 Z M 881.229278 382.349902 " transform="matrix(0.364468,0,0,0.410965,-114.339985,-100.718454)"/>
<path style=" stroke:none;fill-rule:nonzero;fill:rgb(10.196078%,9.803922%,9.803922%);fill-opacity:1;" d="M 224.5 57.425781 C 224.480469 58.398438 223.761719 59.171875 222.898438 59.152344 C 222.035156 59.132812 221.347656 58.324219 221.367188 57.351562 C 221.386719 56.375 222.101562 55.601562 222.96875 55.625 C 223.832031 55.644531 224.515625 56.449219 224.5 57.425781 "/>
<path style="fill:none;stroke-width:0.70753;stroke-linecap:butt;stroke-linejoin:miter;stroke:rgb(10.196078%,9.803922%,9.803922%);stroke-opacity:1;stroke-miterlimit:4;" d="M 929.683898 384.811713 C 929.63031 387.178474 927.658257 389.060476 925.28965 389.012951 C 922.921044 388.965425 921.034732 386.997877 921.088321 384.631117 C 921.141909 382.254851 923.103244 380.372849 925.482569 380.42988 C 927.851175 380.477405 929.726769 382.435448 929.683898 384.811713 Z M 929.683898 384.811713 " transform="matrix(0.364468,0,0,0.410965,-114.339985,-100.718454)"/>
<path style=" stroke:none;fill-rule:nonzero;fill:rgb(100%,100%,99.607843%);fill-opacity:1;" d="M 207.546875 48.890625 C 203.097656 45.582031 200.042969 50.164062 200.042969 50.164062 C 200.042969 50.164062 200.09375 43.472656 204.292969 43.574219 C 207.519531 43.652344 207.546875 48.890625 207.546875 48.890625 "/>
<path style="fill:none;stroke-width:3.53884;stroke-linecap:round;stroke-linejoin:round;stroke:rgb(10.196078%,9.803922%,9.803922%);stroke-opacity:1;stroke-miterlimit:4;" d="M 883.169177 364.043153 C 870.961742 355.992365 862.569801 367.141803 862.569801 367.141803 C 862.569801 367.141803 862.719848 350.859632 874.241352 351.106763 C 883.094154 351.30637 883.169177 364.043153 883.169177 364.043153 Z M 883.169177 364.043153 " transform="matrix(0.364468,0,0,0.410965,-114.339985,-100.718454)"/>
<path style=" stroke:none;fill-rule:nonzero;fill:rgb(100%,100%,99.607843%);fill-opacity:1;" d="M 226.855469 51.25 C 223.605469 45.644531 217.863281 49.144531 217.863281 49.144531 C 217.863281 49.144531 217.71875 43.171875 222.621094 43.292969 C 227.523438 43.414062 226.855469 51.25 226.855469 51.25 "/>
<path style="fill:none;stroke-width:3.53884;stroke-linecap:round;stroke-linejoin:round;stroke:rgb(10.196078%,9.803922%,9.803922%);stroke-opacity:1;stroke-miterlimit:4;" d="M 936.146658 369.78421 C 927.22955 356.144446 911.474564 364.660982 911.474564 364.660982 C 911.474564 364.660982 911.07801 350.127742 924.528695 350.422399 C 937.979381 350.717056 936.146658 369.78421 936.146658 369.78421 Z M 936.146658 369.78421 " transform="matrix(0.364468,0,0,0.410965,-114.339985,-100.718454)"/>
<path style=" stroke:none;fill-rule:nonzero;fill:rgb(100%,100%,99.607843%);fill-opacity:1;" d="M 221.691406 64.875 C 221.644531 67.40625 219.789062 69.410156 217.542969 69.355469 C 215.300781 69.300781 213.519531 67.207031 213.566406 64.675781 C 213.617188 62.144531 215.476562 60.140625 217.71875 60.195312 C 219.960938 60.25 221.738281 62.34375 221.691406 64.875 "/>
<path style="fill:none;stroke-width:3.53884;stroke-linecap:round;stroke-linejoin:round;stroke:rgb(10.196078%,9.803922%,9.803922%);stroke-opacity:1;stroke-miterlimit:4;" d="M 921.977888 402.937866 C 921.849276 409.097147 916.758379 413.973243 910.595714 413.840172 C 904.443767 413.707102 899.556506 408.612388 899.685119 402.453108 C 899.824448 396.293828 904.926063 391.417731 911.07801 391.550802 C 917.229957 391.683873 922.1065 396.778586 921.977888 402.937866 Z M 921.977888 402.937866 " transform="matrix(0.364468,0,0,0.410965,-114.339985,-100.718454)"/>
<path style=" stroke:none;fill-rule:nonzero;fill:rgb(100%,100%,99.607843%);fill-opacity:1;" d="M 206.105469 63.625 C 206.058594 66.152344 204.199219 68.160156 201.957031 68.105469 C 199.710938 68.050781 197.933594 65.957031 197.980469 63.425781 C 198.03125 60.894531 199.886719 58.890625 202.132812 58.941406 C 204.375 59 206.152344 61.09375 206.105469 63.625 "/>
<path style="fill:none;stroke-width:3.53884;stroke-linecap:round;stroke-linejoin:round;stroke:rgb(10.196078%,9.803922%,9.803922%);stroke-opacity:1;stroke-miterlimit:4;" d="M 879.214354 399.896247 C 879.075024 406.046022 873.984128 410.931623 867.832181 410.798553 C 861.669516 410.665482 856.792973 405.570769 856.921585 399.411488 C 857.060915 393.252208 862.151811 388.376111 868.314476 388.499677 C 874.466423 388.642253 879.342966 393.736966 879.214354 399.896247 Z M 880.350428 396.550465 C 880.350428 396.550465 888.345816 386.817281 899.781578 398.384942 " transform="matrix(0.364468,0,0,0.410965,-114.339985,-100.718454)"/>
<path style="fill-rule:nonzero;fill:rgb(89.019608%,89.411765%,88.627451%);fill-opacity:1;stroke-width:3.53884;stroke-linecap:round;stroke-linejoin:round;stroke:rgb(10.196078%,9.803922%,9.803922%);stroke-opacity:1;stroke-miterlimit:4;" d="M 864.981278 419.58123 C 864.981278 419.58123 846.675485 420.864413 852.259395 435.236067 C 856.289242 445.587079 867.778592 438.049565 867.778592 438.049565 C 867.778592 438.049565 867.864334 450.862389 880.286122 448.942366 C 886.320175 448.01087 888.570887 442.041691 888.570887 442.041691 C 888.570887 442.041691 892.193462 452.525775 901.474971 450.814864 C 911.785377 448.913851 913.393028 440.093154 913.393028 440.093154 C 913.393028 440.093154 924.678743 451.489723 931.002173 444.370432 C 937.164837 437.422231 935.482162 431.281961 930.305524 427.365876 C 917.765841 417.889329 902.150184 419.676281 902.150184 419.676281 " transform="matrix(0.364468,0,0,0.410965,-114.339985,-100.718454)"/>
<path style="fill-rule:nonzero;fill:rgb(97.647059%,84.705882%,70.980392%);fill-opacity:1;stroke-width:3.53884;stroke-linecap:round;stroke-linejoin:round;stroke:rgb(10.196078%,9.803922%,9.803922%);stroke-opacity:1;stroke-miterlimit:4;" d="M 974.601685 408.850015 C 974.601685 408.850015 981.643199 394.136179 993.561257 399.344953 C 1005.490032 404.553727 999.241626 422.451759 992.886043 430.835223 C 985.233622 440.929599 972.758245 445.263907 969.521506 431.044335 " transform="matrix(0.364468,0,0,0.410965,-114.339985,-100.718454)"/>
<path style="fill-rule:nonzero;fill:rgb(97.647059%,84.705882%,70.980392%);fill-opacity:1;stroke-width:3.53884;stroke-linecap:round;stroke-linejoin:round;stroke:rgb(10.196078%,9.803922%,9.803922%);stroke-opacity:1;stroke-miterlimit:4;" d="M 880.993489 399.401983 C 880.993489 399.401983 863.191426 404.325605 866.428165 418.202996 C 869.675621 432.070881 911.956859 424.847034 898.377562 413.935223 " transform="matrix(0.364468,0,0,0.410965,-114.339985,-100.718454)"/>
<path style=" stroke:none;fill-rule:nonzero;fill:rgb(89.019608%,89.411765%,88.627451%);fill-opacity:1;" d="M 240.75 66.863281 C 240.75 66.863281 237.8125 65.191406 238.382812 62.296875 C 238.957031 59.402344 240.792969 57.703125 240.792969 57.703125 C 240.792969 57.703125 236.945312 56.589844 237.15625 52.375 C 237.367188 48.160156 239.433594 47.921875 239.433594 47.921875 C 239.433594 47.921875 235.566406 47.679688 236.273438 44.644531 C 236.976562 41.605469 240.1875 42.265625 240.1875 42.265625 C 240.1875 42.265625 240.507812 38.925781 245.019531 39.183594 C 249.53125 39.4375 251.125 43.839844 249.238281 48.011719 C 252.382812 45.472656 256.238281 46.144531 256.832031 48.925781 C 257.421875 51.703125 255.054688 54.265625 255.054688 54.265625 C 255.054688 54.265625 260.042969 56.421875 258.808594 60.320312 C 257.207031 65.375 253.734375 62.523438 253.734375 62.523438 C 253.734375 62.523438 257.226562 68.71875 252.667969 71.082031 C 249.171875 72.894531 249.835938 70.722656 249.835938 70.722656 C 249.835938 70.722656 251.128906 63.769531 246.882812 63.230469 C 243.285156 62.773438 240.75 66.863281 240.75 66.863281 "/>
<path style="fill:none;stroke-width:3.53884;stroke-linecap:round;stroke-linejoin:round;stroke:rgb(10.196078%,9.803922%,9.803922%);stroke-opacity:1;stroke-miterlimit:4;" d="M 974.269437 407.775943 C 974.269437 407.775943 966.209744 403.707776 967.774525 396.664525 C 969.350023 389.621275 974.387332 385.486573 974.387332 385.486573 C 974.387332 385.486573 963.830419 382.77763 964.409174 372.521668 C 964.987928 362.265706 970.65758 361.685897 970.65758 361.685897 C 970.65758 361.685897 960.047079 361.096584 961.986979 353.71115 C 963.916161 346.316212 972.726092 347.922568 972.726092 347.922568 C 972.726092 347.922568 973.604941 339.79574 985.983859 340.423074 C 998.362777 341.040903 1002.735589 351.753108 997.558951 361.904514 C 1006.186681 355.726223 1016.765029 357.361094 1018.394116 364.128698 C 1020.012485 370.886797 1013.517573 377.122118 1013.517573 377.122118 C 1013.517573 377.122118 1027.204047 382.368912 1023.817261 391.854964 C 1019.423013 404.154514 1009.894998 397.215819 1009.894998 397.215819 C 1009.894998 397.215819 1019.476602 412.290847 1006.969072 418.04141 C 997.37675 422.451759 999.198755 417.166944 999.198755 417.166944 C 999.198755 417.166944 1002.746307 400.247934 991.096191 398.936235 C 981.22521 397.824143 974.269437 407.775943 974.269437 407.775943 Z M 974.269437 407.775943 " transform="matrix(0.364468,0,0,0.410965,-114.339985,-100.718454)"/>
<path style=" stroke:none;fill-rule:nonzero;fill:rgb(97.647059%,84.705882%,70.980392%);fill-opacity:1;" d="M 203.328125 87.484375 C 203.328125 87.484375 206.109375 96.894531 216.136719 92.453125 "/>
<path style="fill:none;stroke-width:3.53884;stroke-linecap:round;stroke-linejoin:round;stroke:rgb(10.196078%,9.803922%,9.803922%);stroke-opacity:1;stroke-miterlimit:4;" d="M 871.594085 457.953165 C 871.594085 457.953165 879.225072 480.850859 906.73735 470.043604 M 990.517437 414.733648 C 990.517437 414.733648 984.429796 412.718575 980.48569 420.655302 " transform="matrix(0.364468,0,0,0.410965,-114.339985,-100.718454)"/>
</g>
</svg>
